# xmcd
# 
# Track frame offsets:
#     187
#     18022
#     39572
#     65947
#     87112
#     125694
#     155557
# 
# Disc length: 2432
# 
# Revision: 0
# Processed by: cddbd v1.5.2PL0 Copyright (c) Steve Scherf et al.
# Submitted via: BonkEnc v1.0.8
# 
DISCID=57097e07
DTITLE=Michal Urbaniak - [with Urszula Dudziak/Kenny Kirkland/Marcus Miller/Buddy Williams] Bad Time
DYEAR=1981
DGENRE=Jazz
TTITLE0=Bad Times
TTITLE1=Early Morning Love
TTITLE2=Dancing Dreams
TTITLE3=Something Special
TTITLE4=The Other Side
TTITLE5=North One
TTITLE6=French Kiss
EXTD=YEAR: 1981
EXTT0=
EXTT1=
EXTT2=
EXTT3=
EXTT4=
EXTT5=
EXTT6=
PLAYORDER=
